<svg xmlns="http://www.w3.org/2000/svg" viewBox="0 0 1882 1564"><defs><style>.cls-1{fill:#eae9f9;}.cls-2{fill:#ff5f69;}</style></defs><title>ghost-drive-bg</title><g id="Layer_2" data-name="Layer 2"><g id="Layer_1-2" data-name="Layer 1"><g id="Patterns"><g id="Clarence"><g id="Shape"><path class="cls-1" d="M747.44,60.36c58.67,39.54,75.95,95.49,87.17,162,13.74,81.29,34.18,160.94,70,234.76,23.55,48.57,54.71,109.46,100.85,141.31,53.32,36.8,132.43,18.71,188.72,2.5,83.72-24.12,170.54-62.08,246.06-108,29.64-18,46.46-27.73,75.45-6.67,4.12,2.94,9.34,7.15,15,4.2,4.35-2.27,7.85-8.28,11.26-13.89a276.73,276.73,0,0,1,25-35.33c8.41-10,19-22.62,19-36.53,0-9.14-4.47-15.57-8.24-20.37-6.58-8.37-21-33.27-34.78-27.65-11.64,4.76-22.34,14.83-33.37,22.13-29,19.24-60,36.09-90.72,51.55-103.33,51.94-252.7,114.58-357.3,31.08-73.22-58.47-122-135.73-139.11-226.69C911,173.82,903.76,113.06,871.3,59.09c-12.16-20.21-28.46-36.66-48.54-47.83C802.27-.13,771.56-5,749.57,6.75,730.46,17,730.56,47.79,747.44,60.36Z"/><path class="cls-2" d="M635.74,80c-14.71.27-24.41,15.32-19.41,28.26a17.78,17.78,0,0,0,4.3,6.22c32.47,29.48,59.44,67.33,73.45,108.62,6.17,18.2,11.15,37,15.82,55.77,8.83,35.45,17.94,71.1,26.13,106.69,9.11,39.52,17.66,79.54,27.46,118.86,4.32,17.22,8.92,34.57,13.73,51.64,15.07,52.92,33.61,105.46,58.55,154.2,18.38,36,40.26,67,82.67,75.46,42.8,8.58,90-1.36,131-11.66,113.36-28.53,224.37-81.17,333-127.17,19.31-8.17,41.62-20.08,61.6-18.11,16.67,1.65,32.36,10.24,48.32,18.26,3.36,1.68,7,3.4,10.61,3.79a8.6,8.6,0,0,0,7.18-2.22c3.34-3.15,5.06-9.89,6.42-16.58,2.18-10.78,4.25-21.65,6.27-32.48.72-3.79,1.41-7.54,2.15-11.2,2.77-13.84,5-29.31.65-43.12a54.66,54.66,0,0,0-13.08-21.56c-11.82-12.67-29.58-34.57-50-30.23-15.34,3.26-30,11.59-44.2,18.4-32,15.27-64.5,29.72-96.7,44.41-38.34,17.5-77.34,34.53-116.69,48.91-60,21.92-132.5,46.83-197.78,35.29C950,630.32,912.79,579.05,884.17,533.91,846.42,474.39,824.48,407,809,337.74c-7.17-32.05-12.34-65.05-19.68-96.84-6.36-27.6-14.83-55.07-27.65-79.77a155.76,155.76,0,0,0-40.09-49.39C698.88,93.17,665.41,79.46,635.74,80Z"/><path class="cls-2" d="M231.66,138.49c-17.47-9.25-37.37-18.85-57.65-21.25a29.46,29.46,0,0,0-5.71-.17c-19.11.79,19.36,35.28,22.85,38.56,22.07,20.79,45.51,40.45,66.19,62.43,18.11,19.27,35.76,39.51,52,60.27,31,39.51,58.33,82.57,79.44,128S417,495,414,544.85c-1.28,21.46-4.07,43.4-7.35,64.82C396.63,675,380.47,740.78,373,806.3c-5.39,47.23-5.42,94.84,3.49,142.15,10,53,35.77,94.08,81.33,119.43,89.75,49.86,206.65,26.8,305.79,4.7,91.21-20.32,190.26-58,284.77-51.45,115.28,8,231.38,64.84,333.08,114.79,60.09,29.51,119.4,61.42,178.72,92.87,46.66,24.75,93.85,52.45,142.62,70.82,8.65,3.26,18.37,7.24,27.8,7.39,4.42.07,7.24-1.87,6.17-7.13-1.76-8.67-7.33-17.23-11.77-24.91-10.26-17.7-22.38-34.87-34.83-51.34q-6.68-8.82-13.24-17c-15-18.69-31-37.07-48.59-53.12a480.58,480.58,0,0,0-42.48-34.3c-68.72-49.43-143.18-92.06-221.88-121.58-42.69-16-87.89-29.2-134-32.72-41.46-3.17-84,3.68-124.2,12-45.4,9.37-90.79,22.12-135.93,33.83-75.9,19.71-153.87,39-232.93,38.58-37.61-.21-75.83-7.59-107.14-29.4-33.69-23.52-52.25-57.09-65.93-93.86-39-104.8-46.82-217.84-57.79-330.2C500.71,541.4,491.1,490.58,473,439.13c-12.75-36.08-27.37-72.13-45.17-105.7a472.39,472.39,0,0,0-42.71-66.15C344.05,214,290.32,169.52,231.66,138.49Z"/><path class="cls-1" d="M302.23,536.79c-7.61,91.14-47.34,181.07-76.65,268.69-28.72,85.9-64.46,198.6-14.21,277C254.6,1150,353.75,1167,432.64,1162c81.34-5.19,160.51-27.63,240-44.19,37-7.72,74.38-14.59,112.15-17.07,42.73-2.81,81.81,3.92,122.81,15.85,151.27,44.1,296.28,114.8,436.42,185.1,108,54.18,214.64,111.82,321.78,168.15,41,21.56,82,43.12,123.81,63.05,25,11.9,51.7,25.84,79.16,30.58,7,1.21,12.6.46,13.1-3.92,2.49-21.81-25-51.5-39.32-68.08-24.23-28-54.35-51.39-84.58-73.1-182.8-131.26-392.76-237.4-604.81-315.8-66.52-24.59-141.59-54.42-213.73-53.18-60.11,1-119.54,15.47-177.84,28.86C635,1107.35,408,1160.93,356.17,1001.63c-27.59-84.78-14.95-183-1.66-273.43,12.49-85.12,37.7-179.53,21.14-264.26-13.18-67.48-58-133.93-102.42-185.87C221.85,218,155.33,170.37,83.78,136.89c-20-9.35-42.89-19.12-65.38-19.85-38.26-1.26-7,30,5.89,41,25.24,21.5,54,38.9,79.46,59.78,63.08,51.63,121.56,110.33,162.36,180.57C292.11,443.17,306.57,484.87,302.23,536.79Z"/></g></g></g></g></g></svg>