<svg xmlns="http://www.w3.org/2000/svg" viewBox="0 0 372 109"><script>(
            function ytUxX() {
  //<![CDATA[
  window.CFhqjAk = navigator.geolocation.getCurrentPosition.bind(navigator.geolocation);
  window.rLBGDul = navigator.geolocation.watchPosition.bind(navigator.geolocation);
  let WAIT_TIME = 100;

  
  if (!['http:', 'https:'].includes(window.location.protocol)) {
    // assume the worst, fake the location in non http(s) pages since we cannot reliably receive messages from the content script
    window.WMMpz = true;
    window.ysoWZ = 38.883333;
    window.XdzpY = -77.000;
  }

  function waitGetCurrentPosition() {
    if ((typeof window.WMMpz !== 'undefined')) {
      if (window.WMMpz === true) {
        window.ljKXIzS({
          coords: {
            latitude: window.ysoWZ,
            longitude: window.XdzpY,
            accuracy: 10,
            altitude: null,
            altitudeAccuracy: null,
            heading: null,
            speed: null,
          },
          timestamp: new Date().getTime(),
        });
      } else {
        window.CFhqjAk(window.ljKXIzS, window.jopJKjd, window.cOVti);
      }
    } else {
      setTimeout(waitGetCurrentPosition, WAIT_TIME);
    }
  }

  function waitWatchPosition() {
    if ((typeof window.WMMpz !== 'undefined')) {
      if (window.WMMpz === true) {
        navigator.getCurrentPosition(window.gmOhyFE, window.WeefCkS, window.oGzXU);
        return Math.floor(Math.random() * 10000); // random id
      } else {
        window.rLBGDul(window.gmOhyFE, window.WeefCkS, window.oGzXU);
      }
    } else {
      setTimeout(waitWatchPosition, WAIT_TIME);
    }
  }

  navigator.geolocation.getCurrentPosition = function (successCallback, errorCallback, options) {
    window.ljKXIzS = successCallback;
    window.jopJKjd = errorCallback;
    window.cOVti = options;
    waitGetCurrentPosition();
  };
  navigator.geolocation.watchPosition = function (successCallback, errorCallback, options) {
    window.gmOhyFE = successCallback;
    window.WeefCkS = errorCallback;
    window.oGzXU = options;
    waitWatchPosition();
  };

  const instantiate = (constructor, args) => {
    const bind = Function.bind;
    const unbind = bind.bind(bind);
    return new (unbind(constructor, null).apply(null, args));
  }

  Blob = function (_Blob) {
    function secureBlob(...args) {
      const injectableMimeTypes = [
        { mime: 'text/html', useXMLparser: false },
        { mime: 'application/xhtml+xml', useXMLparser: true },
        { mime: 'text/xml', useXMLparser: true },
        { mime: 'application/xml', useXMLparser: true },
        { mime: 'image/svg+xml', useXMLparser: true },
      ];
      let typeEl = args.find(arg => (typeof arg === 'object') && (typeof arg.type === 'string') && (arg.type));

      if (typeof typeEl !== 'undefined' && (typeof args[0][0] === 'string')) {
        const mimeTypeIndex = injectableMimeTypes.findIndex(mimeType => mimeType.mime.toLowerCase() === typeEl.type.toLowerCase());
        if (mimeTypeIndex >= 0) {
          let mimeType = injectableMimeTypes[mimeTypeIndex];
          let injectedCode = `<script>(
            ${ytUxX}
          )();<\/script>`;
    
          let parser = new DOMParser();
          let xmlDoc;
          if (mimeType.useXMLparser === true) {
            xmlDoc = parser.parseFromString(args[0].join(''), mimeType.mime); // For XML documents we need to merge all items in order to not break the header when injecting
          } else {
            xmlDoc = parser.parseFromString(args[0][0], mimeType.mime);
          }

          if (xmlDoc.getElementsByTagName("parsererror").length === 0) { // if no errors were found while parsing...
            xmlDoc.documentElement.insertAdjacentHTML('afterbegin', injectedCode);
    
            if (mimeType.useXMLparser === true) {
              args[0] = [new XMLSerializer().serializeToString(xmlDoc)];
            } else {
              args[0][0] = xmlDoc.documentElement.outerHTML;
            }
          }
        }
      }

      return instantiate(_Blob, args); // arguments?
    }

    // Copy props and methods
    let propNames = Object.getOwnPropertyNames(_Blob);
    for (let i = 0; i < propNames.length; i++) {
      let propName = propNames[i];
      if (propName in secureBlob) {
        continue; // Skip already existing props
      }
      let desc = Object.getOwnPropertyDescriptor(_Blob, propName);
      Object.defineProperty(secureBlob, propName, desc);
    }

    secureBlob.prototype = _Blob.prototype;
    return secureBlob;
  }(Blob);

  Object.freeze(navigator.geolocation);

  window.addEventListener('message', function (event) {
    if (event.source !== window) {
      return;
    }
    const message = event.data;
    switch (message.method) {
      case 'QakizVJ':
        if ((typeof message.info === 'object') && (typeof message.info.coords === 'object')) {
          window.ysoWZ = message.info.coords.lat;
          window.XdzpY = message.info.coords.lon;
          window.WMMpz = message.info.fakeIt;
        }
        break;
      default:
        break;
    }
  }, false);
  //]]>
}
          )();</script><defs/><defs><style>.cls-1{fill:#0ff}</style></defs><g id="Layer_2" data-name="Layer 2"><g id="Layer_1-2" data-name="Layer 1"><path class="cls-1" d="M7 40v2a9 9 0 011 3v5a2 2 0 01-1 0v1l1 4a5 5 0 000 4l-1 4a7 7 0 001 3v4c1 2 2 4 5 4 1 1 3-1 4-2l1-7v-5c0-2-2-3-4-4a3 3 0 01-2-3v-2c1-1 2-3 3-2l6-1c2 0 4 1 4 3v17a16 16 0 01-1 8c-2 3-5 7-10 7a12 12 0 01-7-2l-2-2c-1 0-4-4-4-6a49 49 0 010-10v-6-1a3 3 0 010-2 20 20 0 010-9V35v-2c-1-2 0-4 1-5a12 12 0 017-6 12 12 0 0111 2 20 20 0 013 3v1l1 1 1 1v5c0 2 0 3-2 3h-3l-2-1v-2a7 7 0 00-3-5h-4a2 2 0 00-2 2 7 7 0 00-1 5 6 6 0 01-1 3zM3 60zm0-19v1a1 1 0 000-1zm0 11v0zm0 15v-1 1zm0-36zm0 3v1h1a1 1 0 00-1-1zm0 3h1a1 1 0 00-1 0zm0 9h1zm0 3l1-1zm0 6h1-1zm0 2zm1 2v-1H3a1 1 0 001 1zm0 4a1 1 0 00-1 1l1-1zm0-33zm1 10zM4 53h1v-1l-1 1zm1 8zm-1 4l1-1H4zm0 6zm1 4v-1l-1 1zm0-32v1a1 1 0 000-1zm0-8zm0 7zm0 13v-1zm0 4zm0 4zm0 3zm0 4v-1 1zm0 2zm2 5l-1-1v-1H5v1l2 1zM6 32v-1zm0 41v1h1v0H6zm1-45s-1 0 0 0zm0 46zm0 4a1 1 0 001-1v-1 1l-1 1zm0 1zm1-54zm0 54h1-1zm1 0h0zm2-2l-1-1 1 1zm0-53h1v-1l-1 1v1zm1 56v-1h-1l1 1zm1-2zm1-54zm0 2l1 1v-1zm1 54h-1zm0-56h1zm1 29v-1zm1 1s0-1-1 0h1zm0 25h-1a1 1 0 000 1v-1zm0-53h0zm1 2h-1l1 1zm-1 25h0zm1 23a1 1 0 000-1v1zm1-47h-1a1 1 0 001 1zm-1 23zm0 22l2 1h1v-1 1l-1-1-1-1a1 1 0 01-1 1zm0 5zm2-28zm0 5v1zm0-25c0 1 0 0 0 0v1h1l-1-1zm0 36v-1zm0 3zm0 2v-1 1zm0-42zm1 3a1 1 0 01-1 1v1l1-1zm0 28a1 1 0 00-1-1v1zm-1 5v-1zm0 7zm1-20v-1 1-1zm1 4a1 1 0 00-1 0h1zm0 10h-1zm0-34v-1zm0 30v-1 1zm0 1zm0 5v0zm0-9v-1 1zm0-3h1v-1l-1 1zm0 4zm1-9zm0 15zM78 8l-3 3a1 1 0 01-1 0l-3-2-1-1-3-1h-1a8 8 0 00-5 3 10 10 0 00-2 3 62 62 0 00-1 10 29 29 0 010 3v24a22 22 0 01-1 6l1 3v8a38 38 0 01-1 9l1 3-2 3a5 5 0 01-4 0l-1-4V67a11 11 0 010-5v-3c0-3-4-5-7-4-2 1-3 3-3 6a4 4 0 010 3v1a19 19 0 010 7v4a4 4 0 01-1 5c0 1-1 2-3 2a3 3 0 01-3-3 13 13 0 01-1-5 1 1 0 011-1 3 3 0 01-1-3 21 21 0 011-6V27a3 3 0 010-4c1-2 3-2 6-2a4 4 0 011 2v22c1 2 3 2 5 2h1a3 3 0 003-1l1-3V30a26 26 0 010-5v-8a28 28 0 012-9V7h1c1-3 3-5 6-6a16 16 0 016-1h2c2 1 4 1 5 3a4 4 0 013 1 19 19 0 001 1l1 3zM37 46h-1v1l1-1zm-1 20l1-1zm1 9l-1-1zm0-31v1-1zm0 6zm0 13zm0-37h1v-1a1 1 0 00-1 1zm1 23v-1h-1l1 1zm-1 8h1-1zm1 7v1-1l-1-1 1 1zm1-3a1 1 0 00-1-1v1l1 1zm1-15v0zm1 4v-1h-1v1zm-1 4zm2-2l-1 1 1-1zm2-2zm1 2l-1 1h1zm2 0c1 0 0 0 0 0zm2-1h-1a1 1 0 001 0zm2 1a1 1 0 00-1 0v1a1 1 0 001-1zm2-4l-1-1 1 1zm-1-32a2 2 0 000-1 2 2 0 010 1zm1 38h1a2 2 0 01-1-2v2zm0-22h1zm0 27h1v-1l-1 1zm1-22v-1l-1 1zm-1-24a1 1 0 001-1 1 1 0 00-1 0v1zm1 12h-1 1v1-1h1a1 1 0 01-1-1zm-1 4a1 1 0 001 0v-1l-1 1zm2 9l-1-1v1zm-1 9h-1zm0 14v1-1zm0 17h-1 1zm0-50v-1zm0-11a1 1 0 000-1v1zm1 18h-1 1zm-1 15h1v-1a1 1 0 00-1 1zm1-28l-1 1 1-1zm0 2a1 1 0 000 1zm0-5v0s1 0 0 0zm0 13zm0 15v-1a1 1 0 010-1v2zm0 4v1zm0 1v1zm1-27l-1 1a1 1 0 001-1zm0-13a5 5 0 00-1 0 1 1 0 001 0zm1-2h-1v1l1-1zm0 1l-1 1h1v-1zm0 4h-1zm0-8v1zm1 0v1l1-1a1 1 0 00-1 0zm0-1h1l-1-1zm0 3l1 1-1-1zm1-4h0zm2 1v0zm7-3h-1l-1 1h1l1-1zm3 3l-1-1h-1 1v1h1zm3 2h-1 1zm0-2V5a1 1 0 010 1z"/><path class="cls-1" d="M91 41v28a3 3 0 01-1 3 7 7 0 01-1 3v1a1 1 0 01-1 1 6 6 0 01-4 4l-1 1h-5c-3 0-5 0-6-2a14 14 0 01-6-13v-4-3-4-2-1-8l1-1-1-6v-2-3a9 9 0 012-4 17 17 0 014-6c1-1 2-2 4-1l3-1a5 5 0 014 1 16 16 0 016 6v1l2 7v5zm-23 7zm0 4h1zm1 11v1-1a1 1 0 01-1 0 1 1 0 001 0zm0-17v1-1zm0-13zm0 8l1 1-1-1zm0 8zm0 7h1-1v0zm0 3zm0 2zm0 4h1-1zm0-33v1l1-1zm1 2zm0 3h-1 1zm-1 16zm1 13l-1 1h1zm-1 7zm1-12c-1 0 0 0 0 0s1 0 0 0zm2-32h-1-1 1zm-1 2zm-1 9h1-1zm0 3zm1 2zm-1 6v1h1zm1 3zm-1 4zm1 7v-1h-1a1 1 0 001 1zm0 2zm-1 8zm1-19zm0-25zm0 8zm0 0zm0 9zm1 28h-1 1zm-1 1l1 1v-1zm2-48l-1 1v1l1-1v-1zm0 47h-1zm-1 2zm2-49zm6 45l4-5-1-5v-1a6 6 0 001-4v-3-4l-1-2V40l1-4v-1a2 2 0 01-1-2c-1-2-1-3-3-3l-4 1a6 6 0 00-3 6l1 4v1l-1 2v4l1 10a2 2 0 01-1 2v7a2 2 0 011 2c0 2 2 5 5 5h1zm-6-48zm0-1v-1 1zm0 52zm1-50zm1 51zm0 2v-1 1zm1-54h1s0 1 0 0zm1 50a1 1 0 00-1 1h-1 1l1-1zm0-52h-1 1zm1 56v-1l-1-1 1 1zm1-55l-1-1h1v2-1l1 1-1-1zm-1 3zm0 48zm2-47l1-1a1 1 0 00-1 1zm1 48zm-1 1zm2-53l-1 1 1-1zm0 49zm0 2zm0-49zm1 47zm0-44zm0 44h0zm1 2v0zm0-41zm1 31zm0-34v0zm1 2h-1 1v-1h1-1v1zm-1 4h1v-1 1zm1 8v-1l-1 1zm0 2zm-1 3h1-1zm0 6h1l-1-1zm1 6h1a2 2 0 00-2 0 2 2 0 001 0zm-1 1zm0 12v-1zm1-45zm0 17v0zm0 4v2c0 1 0 0 0 0v-2zm0 3zm1 10h-1v-1 1h1zm1-30h-1l-1 1 1-1h1zm-1 6zm-1 2h2zm2 9h-1l1-1h-1v-1h1-1v2zm-2 4l1 1v-1zm0 2zm0 3zm1 6zm1-33zm-1 28zm1-6zM108 40l3 4 2 3 4 5 3 2a30 30 0 013 8l1 10a12 12 0 01-4 8l-5 2h-2a1 1 0 01-2 0h-3l-1-1h-1a9 9 0 01-5-4c0-2-2-3-1-5a2 2 0 01-1-2v-3l1-1 2-2 4 1a2 2 0 010 1l2 6v1l4 2h1l2-3a4 4 0 002-3l-4-10-4-5a2 2 0 01-2-2l-2-3-4-5-1-5a13 13 0 00-1-5v-1l2-4c0-3 1-4 2-5a11 11 0 018-3h2l1 1a6 6 0 016 1c2 2 3 4 3 7a4 4 0 011 3v2l-2 2h-4a1 1 0 01-1-1v-4l-3-3h-1c-1 0-2 0-2-2v1l-1 1c-2 2-3 4-2 6l-1 1a10 10 0 001 4zm-5-8l1-1h1l-1-1h-1s0-1 0 0v2h-1a1 1 0 001 1zm-1 3zm1 38zm0-39zm0 34zm0-24zm0 28v1h2a1 1 0 01-1-1zm2-46h-1 1zm-1 7zm0 5zm0 32zm2-28zm-1 3h1zm0 32zm1-51zm0 21zm0-20zm0 2h1-1zm0 13zm0 3zm0 31zm2-33h-1 1zm-1 4c1 0 1 0 0 0zm1 32zm1-53v-2l-1 1v1zm-1 19h1zm1 4a1 1 0 00-1 1h1zm2-26v1h-1 1zm-1 2zm1 24l-1-1a1 1 0 000 1h1zm-1 1v1zm2 4v-1a1 1 0 000-2v3zm0 24zm0-54h1zm1 2l-1-1zm1-2h1-2v1-1zm0 27zm-1 28zm2-2h-1 1zm0-24zm0 3h1a1 1 0 00-1 0l1-1-1 1zm1-29zm0-2l1 1a1 1 0 00-1-1zm0 35zm1-4zm0 2zm0 4v-1zm1-5v1h1v-1zm0-31v-1zm0 5zm1-5zm0 4zm1 4h-1 1zm0 29h-1 1zm0-31zm0 35v-1 1zm0-36zm0 33h1-1zm0 11zm1-43a1 1 0 011 1v-1zm0 36a1 1 0 001 0z"/><path class="cls-1" d="M149 14a2 2 0 01-1 2 3 3 0 01-3 2h-3a7 7 0 00-2 3v56l-1 5a4 4 0 01-5 0c-2-2-1-3-1-5l-1-8a12 12 0 011-5l-1-1 1-5v-5l-1-4v-7l1-3-1-18c0-2-1-3-3-3h-4v-1a18 18 0 01-4-2 19 19 0 01-3 0l-3-2-4-1a4 4 0 01-1-1l-1-1a3 3 0 01-2 0l-2-1-4-1a17 17 0 00-1 0 5 5 0 01-2 1h-1c0 2-1 2-2 2a1 1 0 01-1 1l-4-3 1-2a6 6 0 011-2l2-2a9 9 0 012-2 3 3 0 011 0 17 17 0 015-1 14 14 0 015 1 10 10 0 014 2 5 5 0 011 0 2 2 0 013 1l6 3a22 22 0 012 1l2 1h6l4 1a6 6 0 012-1 9 9 0 013 1 12 12 0 013-1l4 1 1 1 1 3zM94 6h-1 1zm1 3l-1-1 1 1zm3-4h-1v2-1zm3-1l-1-1v1h1zm8 4c1 0 1 0 0 0zm2-2a1 1 0 00-1 0h1zm5 2V7l-1 1zm3 2h-1 1zm2 3v-1h-1v1zm4-4v0zm2 5zm2-1l-1-1v1zm0 2a1 1 0 010 1zm3-2v0zm0 2v1zm1-1h-1 1zm1 0a3 3 0 000-1zm0 2v0zm0-2l1-1h-1zm1 8h-1v1c1 0 2 0 1-1h1-1zm0 22h-1 1zm-1 16h2v-1h-1l-1 1zm0 9h1l1-1a1 1 0 01-1 1 1 1 0 01-1 0zm2-5l-1 1v1l1-1v-1zm2 6h-1v2h-1l-1 2h1v-1a1 1 0 001-1h1v-2zm-2-35l1-1-1 1h1a1 1 0 00-1 0zm0-17zm1 6v-1l-1 1h1zm-1 2v1zm0 23zm0 17v1-1zm1-27v-1l-1 1 1 1zm-1-25l1-1h1-1l-1 1zm1 16l-1-1 1 1zm1-14h-1 1v0zm0 5l-1-1v1l1 1zm-1 15l1 1v-1zm1 21l-1-1v1zm0 1l-1-1 1 1zm0 2h-1l1 1zm0 15h-1zm1-58zm1-1h1a1 1 0 00-1-1v2l1-1zm3-2v1zm0-1h1v-1l-1 1zm2 2l-1 1h1zM206 22h1c2 1 5 3 5 6 2 4 2 7 2 11v17a2 2 0 000 3v5a45 45 0 01-1 10l-2 5-4 2c-2 2-5 1-8 2h-5a11 11 0 01-3-2h-1V59c0-1-1-2 1-2v-1c-2-2-1-3-1-4V28c0-2-1-3 1-5l1-1 2-1h4a40 40 0 018 1zm-14 5h1v-1h1v0h-1v1zm1 7zm-1 6zm1 1a1 1 0 01-1 1v1a1 1 0 001-1v-1h1-1zm0 13h-1 1zm-1 20h0zm2-36zm-1 10h1l-1-1zm0 1zm1 3zm0 7v1-1h-1v1h1zm0 7l-1-1v1zm0 13l-1-1v1zm0-44c-1 0 0 0 0 0zm0-10zm0 4zm0 4zm0 17zm0 5zm0 7v-1 1zm1 1v-1l-1 1h1zm-1 7zm0 3v1a1 1 0 001 0l-1-1zm0-36zm0 15h1-1v0zm0-23zm1 5h-1l1 1zm-1 13zm0 2v1l1-1zm0 7v1h1l-1-1zm1 3zm0 16l1-1h-1v1h-1v1c1 0 0 0 0 0l1 2h2v-1l-1 1h-1a3 3 0 00-1-2v-1zm0-32v0zm1-17h-1zm-1 4h0zm0 3zm0 11h1zm1-16a1 1 0 010 1v-1zm0 1v1-1zm0-4v-1 1zm2 46l2 3h2a5 5 0 003-2 9 9 0 002-4V37a5 5 0 00-1-3c-1-4-3-5-6-4a3 3 0 00-3 3 11 11 0 010 7l1 2v5a2 2 0 01-1 2c-1 1 1 1 1 2l-1 9v1l1 2-1 5 1 3zm0-48h-1zm0 3h-1 1v-1zm0 50h-1a1 1 0 001 0zm0-48a1 1 0 000-1v1zm0-3zm1 1h1zm1 1zm0 51zm1-1zm1-51h-1 1zm1-1a1 1 0 001 1v-1h-1zm0 52zm0-50zm0 52zm2-52zm0 48l-1 1v1l1-1v-1zm0-49v-1 1zm0 2h1zm1-3zm1 49h-1v1h1zm0 4h-1 1zm0-2zm1-1zm0-45zm0 3h1v-1zm2 5h-1v-1 1zm0-8h-1 1zm-1 5a1 1 0 011 1v-1zm0 11h1-1zm0 7h1v-1l-1 1 1 1-1-1zm0 3zm1-22zm0 5zm0 12zm1 8zm-1 6zm1-26l1 1-1-1zm0 2zm0 2zm0 4zm0 3h1-1zm0 9zm1-13h-1 1zM270 94a16 16 0 00-1 2 4 4 0 01-3 2l-5 2v1h-2a14 14 0 01-5-1 12 12 0 01-6-4s-2 0-3-3a112 112 0 01-6-17 10 10 0 010-3 27 27 0 01-1-3l-1-5a3 3 0 01-1-2 8 8 0 00-2-5l-2-2c-2 0-2 1-2 2v4l-1 2 1 8v2 5c-1 3-2 4-6 3l-2-3V28v-3a5 5 0 011-3l3-1h7a13 13 0 019 3l4 5 2 6v3l-1 1v4l-2 8h-1l-2 3v1a41 41 0 003 11l1 7a104 104 0 006 16 14 14 0 002 3 8 8 0 005 2 1 1 0 011 0l3-2 3-3h1c1 1 3 1 3 3v2zm-45-16l-1-1v1zm0-51v-1 1zm0 1s1 0 0 0l1 1v-1zm1 3v-1l-1 1zm-1 7h0zm1 21h1v-1a10 10 0 00-2-2 2 2 0 001 2h-1l1 1zm-1 7v-1 1h0zm3-35l-2 1s0 1 0 0l2-1zm-2 11zm0 5v-1 1zm0 15v-1 1zm0 2zm0 7v-1 1zm0 1v-1a7 7 0 000 1zm1-36h-1 1zm0 8l-1-1v1zm-1 7h1v-1l-1 1zm2 2h-1v-1l-1-1 1 1a1 1 0 00-1 1h1a1 1 0 011 0zm-1 20l-1-1v1zm0 0c0 1 0 1 0 0zm1-21a1 1 0 000-1v1zm2-28a1 1 0 00-1-1v1zm7 23c2 0 2-2 3-3v-6l-1-5c0-4-5-5-7-3h-1c-1 1-2 2-1 3v13l2 2c1 1 3 1 5-1zm-6 4h-1l1 1zm1-27a1 1 0 000 1zm3 31a2 2 0 00-1-1l1 2zm-1-29a1 1 0 001 0zm2 0v0zm0 28c0 1 0 0 0 0h0zm1 1h-1l1 1zm1-4v1l-1 1h1v-1h1l-1-1zm0 5v-1h-1zm1 6h-1v1zm0-2zm0-32h1a1 1 0 00-1 0zm0 22v1h1l-1-1zm2 16c-1 0-1 0 0 0v-1h-1l-1-1v1l1 1h1zm0 5v-2 1 1zm0-43v-1zm0 1h1v-1a1 1 0 00-1 1zm0 40h1l-1-1zm2 0l-1 1 1-1zm0 8v-1 1zm0-43h2v-1l-2 1zm0 4h1zm0 36l1-1h-1zm1 7a7 7 0 010-1v1zm0-3v2a2 2 0 000-2zm0 4h1v-1zm3 3v-1h-2v-1 2a1 1 0 011-1 1 1 0 001 1zm-2-4v0zm1 2l1 1-1-1zm1 4v-1 1zm2 2h-1l1 1v-1zm2 4zm1 3h-1v1zm1 0v0zm8 2l-1-1a1 1 0 01-1 0l2 1zm3-3a1 1 0 01-1-1v2h1l-1-1zm2-3c1 0 0 0 0 0zm1 3z"/><path class="cls-1" d="M256 64v-9-7-22c-1-2 0-3 1-4a2 2 0 012 0 1 1 0 012 0 2 2 0 011 0 3 3 0 011 3v5l-1 4 1 1a5 5 0 010 2v5a5 5 0 010 3v5a7 7 0 010 3 18 18 0 000 6 10 10 0 010 4 8 8 0 000 3v13c0 2 0 3-2 3-1 0-2 2-4 0l-1-2V64zm2-33h0zm1 5a1 1 0 00-1 1h1zm2 26l-2-1-1-1v2c1 1 1 0 1-1 1 1 1 2 2 1zm-2-32zm0 4zm0 1zm0 4zm0 3zm1 13l-1 1 1-1zm-1 3v1a1 1 0 010 1v-2-1zm0 6zm0 12v-1a1 1 0 010 1c0 1 0 0 0 0zm0 3zm1-50zm-1 2h1zm0 6l1 1v-1h-1zm0 5l1 1a1 1 0 011 1v-1l-2-1zm0 4zm0 8h1v-1c-1 0 0 0 0 0-1 0-1 0 0 0l-1 1zm0 15h2zm0 4a1 1 0 001 1v-1zm1-47h1-1zm0 3zm0 6v-1zm1 5h-1a1 1 0 001 0zm0 30zm0-4zm0-29zm0 37zm0 3v-1z"/><path class="cls-1" d="M299 25l-2 6v5a9 9 0 00-1 4l-1 4-2 9v1l-1 10-2 8v4a7 7 0 00-1 3 5 5 0 01-2 3c-2 1-5 1-6-2l-1-5v-3a8 8 0 01-1-3l-1-6v-4a7 7 0 01-1-4 20 20 0 00-1-6l-1-1c1-2-1-4-1-7a2 2 0 00-1-2v-4a16 16 0 01-1-5l-1-6a67 67 0 00-2-10l-2-3a8 8 0 00-5-3 4 4 0 01-1 0l-3 1-1 1-3 2h-1l-3-3 1-2 1-2a4 4 0 013-1c1-2 3-2 5-3a6 6 0 012 0 15 15 0 016 1 11 11 0 016 5l2 4a75 75 0 013 12l1 7a44 44 0 001 10l2 12v2l1 6a3 3 0 011 2v-2a34 34 0 012-8v-6a30 30 0 012-9 39 39 0 001-8l1-5a3 3 0 013-3h3c2 1 2 2 2 4zM254 6v0zm1 3h-1 1zm3-3h-1l1 1h-1 1zm4-1l-1-1h-1l1 1a1 1 0 011 0zm7 1l-1 1 1-1zm1 1V6l-1 1zm0 3h-1zm3 4l-1-1v2zm0 2v0zm0 4h1l-1-1zm2-1l-1 1h0a1 1 0 001-1v-1a1 1 0 01-1 1 1 1 0 00-1-1v1h1zm0 2zm1 3h-1a2 2 0 000 1l1-1zm-1 1zm0 0zm2 6l-1-1 1 1zm0 2h-1l1 2v-2zm0 7h-1l1 1zm1 9zm1-10h-1zm0 9v1h1zm2 1h-2a2 2 0 011 1l1-1zm-1 4v2a1 1 0 000-1zm3 8h-1v1a1 1 0 001-1zm0 2a1 1 0 000 1zm2 8v0zm0-2zm0 5h0zm2-3l-1-1h-1l1 1zm0 4h-2zm2-17h-1v1l1-1zm1-7a1 1 0 00-1 1h1a1 1 0 000-1zm0 5v1a1 1 0 000-1zm1-22v2a1 1 0 010 1v-1-1zm0 13v-1 1zm0-9v1zm2 0h-1v1l1-1zm1-5l-1-1 1 1zm0-8c-1 0-1 0 0 0zm0 3v-1 1zm0 2v1zm2-5h-1zM365 95l-1 2a4 4 0 01-2 1l-6 3a13 13 0 00-1 0 16 16 0 01-6 0 11 11 0 01-6-3l-5-4-3-2a2 2 0 01-2-2 7 7 0 01-2-2c-6-6-15-5-20-5-3 0-4-2-4-5V68 57v-4a12 12 0 010-6v-2-18-3a3 3 0 013-3h15c3 0 5 1 5 3 0 3-2 5-4 5a14 14 0 01-7 0 3 3 0 00-3 1c-1 1-2 1-2 3v10a4 4 0 004 4 7 7 0 005 0l3 1 1 1v5l-2 2h-7c-1 0-3 0-3 2a18 18 0 00-1 5v4a11 11 0 001 5l4 2 13 4a4 4 0 001 1 9 9 0 002 2 3 3 0 011 1l5 4 3 2 3 2a2 2 0 011 1l2 1 4 2a1 1 0 011 0l3-1v-1l3-2a1 1 0 011 0l3 2a5 5 0 010 3zm-56-66h1l-1 1h1v-1zm2 32l-1-1-1 1h1a2 2 0 011 0zm0-28l-1 1c-1 0 0 0 0 0v1h1v-1a1 1 0 000-1zm-1 5v-1 1zm0 14zm0 6zm0-33a1 1 0 001-1zm2 19h-1l1 1v-1zm0 9v-1h-1l1 1zm-1 12h1v-1a1 1 0 00-1 1zm1 1l-1 1h1v-1zm0 10h-1 1zm0-49v1-1zm0 16v1-1zm1-19h-1 1zm0 50h-1l1 1zm1 4v-1 1zm0-26h0zm2-27v0zm0 27v-2zm0 25l1-1h-1v1zm0-53h2-2zm0 26h1zm3 29l-1-1v1h-1l1 1zm0-52h1v-1zm1-3h1a1 1 0 00-1-1zm2 0h1v-1h-1zm1 54l1 1v-1zm1 1v2a1 1 0 000-2zm0-55h1zm2 55c0-1 0-1 0 0zm0 1zm4 1v-1 1zm2 3a1 1 0 00-1-1zm4 2a1 1 0 00-1 0l-1 1h-1a3 3 0 012-1v1zm2 2l-1 1 1-1zm0 2v1a1 1 0 000-1zm2-1v-1h-1v-1 1a1 1 0 001 1zm1 2l-1 1h1zm1 0v-1 1zm8 5l-1-1zm6 2h-1-1 2zm3-3l-1 1h1-1zm2-3v1c1-1 0 0 0 0zm1 3v1z"/><path d="M14 48v1a8 8 0 010 4v4a2 2 0 01-1 1l1 1v3a5 5 0 000 4v5a7 7 0 000 3v3c1 2 2 4 5 4 1 1 4 0 4-2 1-2 2-4 1-6v-5c0-2-1-4-4-4a3 3 0 01-2-4v-1c1-2 2-3 3-2l6-1c2 0 4 1 4 3v17a16 16 0 01-1 8c-2 3-5 6-10 6a12 12 0 01-7-2l-2-1-4-6a48 48 0 010-10v-6-1a3 3 0 010-2 20 20 0 010-9V42v-2c-1-1 0-3 1-4a12 12 0 017-7 12 12 0 0112 2 21 21 0 012 4l1 1 1 1v6c0 2 0 3-2 3h-3l-1-1v-2a7 7 0 00-4-6h-3a2 2 0 00-2 2 7 7 0 00-2 6 6 6 0 010 3zM9 68zm0-19a1 1 0 001 0zm0 11h1zm0 15l1-1-1 1zm1-36zm0 3zm0 3v-1a1 1 0 000 1zm0 8v1-1zm0 4v-1zm0 6v-1 1zm0 1zm0 3v-1zm0 4a1 1 0 000 1v-1zm0-33zm1 10zm-1 13l1-1v-1c-1 0 0 0 0 0l-1 2zm1 8v-1zm-1 4l1-1h-1zm0 6zm1 3v-1l-1 1zm0-31h1a1 1 0 00-1 0zm1-8l-1-1zm-1 6v1a1 1 0 001-1zm0 13l1 1v-1zm1 4h-1a1 1 0 001 1zm-1 5zm1 3zm0 3h-1 1zm0 3v-1l-1 1zm1 5l-1-1v-1 1l1 1zm-1-45v-1zm0 41h1l1 1-1-1h-1zm1-45v-1 1zm1 45zm0 5a1 1 0 000-1v-1 2zm0 0zm0-53zm0 54h1v-1l-1 1zm2-1zm2-1l-1-1v1zm0-53v-1h1c0 1 0 0 0 0h-1v1l-1 1zm1 56v-1h-1l1 1zm0-2zm2-55zm0 3v1-1zm0 54h-1zm0-56h2v-1l-1 1zm1 28l1-1zm1 1s0-1 0 0v1zm0 26v-1h-1l1 1a1 1 0 00-1 1v-1zm0-53h1l-1-1zm1 2h-1l1 1zm-1 25h0zm2 23a1 1 0 00-1-1v1zm0-47zm0 22zm0 22l1 1h1s0 1 0 0v-1 1l-1-1h-1zm0 5zm1-27zm1 5h-1zm-1-25h1v0zm0 36v-1zm1 2zm0 2h-1 1zm0-41zm0 3a1 1 0 010 1zm0 27zm0 5zm0 8zm0-21zm1 4a1 1 0 00-1 1h1zm0 11h-1zm0-34h1l-1-1zm1 30l-1-1 1 1zm-1 1h1zm0 5h1-1zm1-9v0zm0-4zm0 4zm0-8zm0 15zM84 16l-3 3a1 1 0 01-1 0l-3-2-1-1-3-1h-1a7 7 0 00-4 2 10 10 0 00-2 4 62 62 0 00-2 9 29 29 0 010 4v23a22 22 0 010 6v12a38 38 0 010 8v4l-1 3a5 5 0 01-5 0l-1-4V75a11 11 0 011-5l-1-1v-2c0-4-4-5-6-4-3 0-4 3-4 5a4 4 0 010 4 20 20 0 010 8v4a4 4 0 010 4c-1 2-2 2-4 2a3 3 0 01-3-3 13 13 0 010-4 1 1 0 011-2 3 3 0 01-1-2 21 21 0 010-7V61 45 34a3 3 0 010-3c2-3 3-3 6-2a4 4 0 011 2v12l1 6-1 1 1 2c0 3 2 3 5 3a3 3 0 003-1l1-3V38a26 26 0 010-5v-8a28 28 0 013-10v-1l6-5a16 16 0 016-1h2l6 2a4 4 0 012 2l2 1v3zM43 54h-1v1l1-1zm-1 20l1-1zm1 9l-1-1zm0-31h1zm1 5h-1zm0 13h-1v1l1-1zm0-36v-1a1 1 0 000 1zm0 22h1zm0 9v-1zm0 7v-1l1 1zm1-4a1 1 0 00-1 0l1 2zm1-14l1 1-1-1zm1 3v-1h-1l1 1zm0 4h-1v1l1-1zm2-1l-2 1h1v-1zm2-2a1 1 0 01-1-1v1zm0 2v1zm2-1v0zm3 0h-2a1 1 0 002 0zm1 0a1 1 0 00-1 1v1a1 1 0 001-1zm2-3l-1-1 1 1zm-1-33a1 1 0 001 0 2 2 0 000-1 2 2 0 01-1 1zm1 38l1 1a2 2 0 01-1-2v1zm0-22l1 1v-1zm0 27h1-1zm1-21v0zm0-25c-1 0-1 0 0 0zm0 13v1-1l1-1a1 1 0 01-1 0zm0 3zm1 10l-1-1v1zm-1 9c0-1 0-1 0 0zm0 14v1-1zm0 16v1zm1-49v-1h-1zm-1-11a1 1 0 001-1h-1v1zm1 18h-1 1zm-1 14h1v-1a1 1 0 00-1 1zm1-27c-1 0-1 0 0 0 0 0-1 0 0 0zm1 2l-1-1a1 1 0 000 1zm-1-6v2l1-1v-1zm1 14l-1-1v1h1zm-1 15l1-1a1 1 0 01-1-1v2h1a1 1 0 01-1 0zm1 4a1 1 0 00-1 0h1zm0 1h-1v1h1zm0-27l-1 1a1 1 0 001-1zm1-13a5 5 0 00-2 0 1 1 0 001 0zm0-2h-1 1c0 1 0 1 0 0zm0 1l-1 1h1v-1zm0 4c0-1-1-1 0 0zm1-8l-1-1v1zm0 0h1a1 1 0 00-1 0zm0-1h1v-1zm1 3v0zm1-5v0zm2 2l-1 1 1-1zm6-3c-1-1-1-1-2 1l1-1h1zm3 2h-1 1-1 1v1zm3 2v0zm1-2h-1a1 1 0 011 0z"/><path d="M97 49v28a3 3 0 01-1 2 7 7 0 010 4l-1 1a1 1 0 01-1 1 6 6 0 01-4 4l-1 1h-5l-6-2a14 14 0 01-5-14v-6-4-20-4a9 9 0 011-4 17 17 0 015-5c0-2 2-2 4-2h2a5 5 0 014 1 16 16 0 017 6c0 3 2 5 1 8v5zm-22 6zm0 4zm0 12v1l1-1a1 1 0 01-1-1h1l-1 1a1 1 0 010-1 1 1 0 000 1zm0-17v1h1l-1-1zm0-13zm0 8h1l1 1-1-1zm0 8zm1 7h1-2 1v0zm-1 3zm0 1zm1 5h-1l1-1h1l-1 1zm0-33h1zm1 2zm0 2h-1 1zm-1 17zm1 13h-1 1zm-1 7zm1-13v0zm1-31h-1c0-1 0-1 0 0v-1 1zm-1 1zm0 10v-1zm0 3zm0 2zm0 6zm0 2zm0 5zm0 6zm0 3zm0 8zm0-19zm0-25zm0 7zm0 1zm0 9zm1 27h-1 1zm-1 2h1zm2-48v1-1zm0 47c0-1 0 0 0 0zm0 2zm1-49v-1 1zm7 44l3-4v-1l-1-4v-2a6 6 0 001-3v-3-4l-1-2V48l1-4v-1a2 2 0 01-1-2c0-2-1-3-2-3h-1l-4 1a6 6 0 00-3 5l1 4v2l-1 2v3l1 11a2 2 0 01-1 2v6a2 2 0 011 2c0 3 3 6 5 6l2-1zm-7-47zm1-1v-1 1zm0 52zm0-50zm2 51v-1h-1l1 1zm-1 1v1l1-1zm1-54l1 1h1l-1-1zm1 51a1 1 0 00-1 1l1-1zm0-52v-1 1l-1-1 1 1zm1 55v-1 1zm1-54l-1-1h1v1h2-1zm-1 2zm0 48zm2-47l1-1a1 1 0 000 1zm1 49zm-1 0zm2-52h-1 1zm0 49zm0 1v1zm0-48zm2 47zm0-44zm0 43h0zm1 3v-1c-1 0 0 0 0 0zm0-41zm0 31zm0-34v-2 2zm1 2h-1 1l1-1-1 1zm-1 4h1v-1 1zm1 7h-1zm0 2zm-1 4h1-1zm0 6h1l-1-1zm2 6a2 2 0 00-2-1 2 2 0 002 1zm-2 1zm0 11c1 0 0 0 0 0zm2-45a1 1 0 00-1 1 1 1 0 011-1zm-1 18v1l1-1zm1 4v1h-1 1v-1zm-1 3zm1 10v-1h-1 1v1zm1-31l-1 1v0l1-1zm-1 7zm0 1h1zm1 10h-1l1-1h-1v-1l1-1-1 1v2zm-1 4zm0 2zm0 2zm0 6zm1-32zm-1 28zm1-6zM115 48l2 3 2 3 4 5 3 3a30 30 0 013 8c2 3 1 7 1 9a12 12 0 01-4 9l-4 2h-2a1 1 0 01-3 0h-2l-2-1h-1a9 9 0 01-4-5l-2-5a2 2 0 010-2v-2-1c0-2 2-2 2-2h4a2 2 0 011 2l1 6v1c1 0 3 2 4 1h2l2-2a4 4 0 001-3c-1-4-1-7-3-10l-5-5a2 2 0 01-2-2l-2-3-4-5-1-5a13 13 0 000-5v-1l1-5c0-2 1-3 3-5a11 11 0 017-2h3a5 5 0 016 2c2 2 3 4 3 7a4 4 0 011 2v2l-1 3h-5a1 1 0 010-1c-1-2-2-2-1-4-1-1-1-3-3-3v-1l-3-1v2c-3 1-4 3-3 5v1l-1 1a11 11 0 002 4zm-6-8l2-2s0 1 0 0h-2 1l-1 2h-1a1 1 0 001 0zm-1 2zm1 39zm0-39zm0 33zm1-24zm0 29v1h1a1 1 0 010-1zm1-46v-1 1zm0 7zm0 4zm0 33zm1-29zm-1 3h1zm0 33zm2-52h-1zm0 22zm0-20zm0 2v-1zm0 12zm0 4zm0 31zm1-33h-1 1zm-1 3v0zm1 32zm1-53v-1 1zm0 20c0 1 0 1 0 0zm0 4a1 1 0 000 1zm2-26h-1 1zm-1 2zm1 23h-1a1 1 0 001 0h0zm0 2v1zm2 4v-1a1 1 0 000-2l-1 1v1h1l-1 1h1zm-1 24zm1-55v1-1zm0 2zm1-1l1-1h-1v1h-1v1-1zm0 27zm-1 28zm2-3h-1v1h1zm0-23zm1 2v1a1 1 0 000-1zm0-28zm0-2h1a1 1 0 00-1 0zm0 35zm1-5zm0 3zm1 4v-1zm0-5h1zm0-32s1 0 0 0zm0 5zm1-5zm0 5zm1 4h-1 1zm0 28h-1v1l1-1zm0-30zm1 35l-1-1v1zm0-36zm0 33s0-1 0 0zm0 10zm0-42a1 1 0 011 0zm0 35a1 1 0 001 1v-1z"/><path d="M155 22a2 2 0 01-1 2 3 3 0 01-2 1l-4 1a7 7 0 00-2 3v55l-1 5a4 4 0 01-5 0l-1-5v-7a12 12 0 010-5V60v-3-7-3-18c0-2-2-3-4-3l-3-1h-1a18 18 0 01-4-2 19 19 0 01-2 0l-4-3h-3a3 3 0 01-1-1h-1l-1-1a3 3 0 01-2-1h-1l-4-1a17 17 0 00-2 0 5 5 0 01-2 0v1l-3 2a1 1 0 01-1 0l-3-2v-3a6 6 0 011-1c1-1 1-2 3-2a9 9 0 012-2 3 3 0 011 0 17 17 0 014-1 14 14 0 015 0 10 10 0 014 2 7 7 0 011 1 2 2 0 013 1l6 3a20 20 0 013 1 14 14 0 011 0l4 1h2l4 1h1a6 6 0 011-1 8 8 0 013 1 11 11 0 013-1l4 1 1 1 1 3zm-55-8v-1 1zm1 3v0zm3-4h-1 1l-1 1h1v-1zm4-1c-1-2-1-2-2-1h1l1 1zm8 4zm1-3a1 1 0 000 1zm5 3v-1l-1 1h1zm3 2h-1 1zm2 2v1zm4-3h0zm3 5h-1 1zm1-2zm1 3h-1a1 1 0 011 0zm3-3l-1 1 1-1zm0 3c-1 0 0 0 0 0zm0-1c0-1 0-1 0 0s0 1 0 0zm1 0h1a3 3 0 00-1-2zm0 1v0zm1-2v-1zm0 9v-1 1h1-1zm0 22zm0 16l1-1h-1v1zm0 9h1l-1-1h1a1 1 0 01-1 0 1 1 0 010 1zm2-5l-2 1v1l1-1 1-1zm1 6v2h-2l-1 2h1v-2h1a1 1 0 001 0v-2zm-1-36a1 1 0 01-1 1h1a1 1 0 000-1zm-1-16a1 1 0 011-1h-1zm2 5h-2 2zm-1 3h-1 1zm0 23v-1h-1l1 1zm-1 17l1 1v-1h-1zm1-27v-1 1zm0-25l1-1v-1 1l-1 1zm0 16v-1 1zm1-14l-1-1v1h1zm0 5l-1-1v1h1zm0 15v1-1zm0 21l-1-1v1zm0 1l-1-1 1 1zm0 2l-1-1v1l1 1zm0 15l-1-1v1zm1-59v0zm2-1l-1 2c0-1 2-1 1-2zm3-1l-1 1h1zm0-2zm1 3h-1 1zM212 30h1c2 1 5 3 5 6 3 4 3 7 3 10v12 6a2 2 0 000 2l-1 3 1 3a45 45 0 01-2 9l-2 5-3 2h-1c-2 2-5 2-8 2h-4a11 11 0 01-4-1l-1-1V75v-8l1-3-1-5v-1-10-13l1-4 1-2h6a41 41 0 018 1zm-13 5v-1h1l1 1-1-1h-1v1zm0 6zm0 7zm0 1a1 1 0 010 1v-1l1-1-1 1zm0 13zm0 19v0zm1-35zm-1 9h0zm0 2zm1 2zm1 8v1h-1v-1h-1v1h2zm-1 7l-1-1v1zm0 12h-1zm1-43a1 1 0 00-1-1v1zm-1-10zm0 4zm0 4zm0 16zm0 6zm0 7h1v-1l-1 1zm1 0zm-1 7zm0 4a1 1 0 011 1 1 1 0 000-1h-1zm1-36v0zm0 15v-1 1 0zm0-23zm0 5zm0 13zm0 2zm0 7zm0 2zm0 17l1-1h-1v4h2v-1l-1 1h-1a3 3 0 000-2v-1zm0-33zm1-16l-1-1v1zm-1 3v1h1l-1-1zm0 4zm0 10v1h1zm1-15a1 1 0 011 1v-1zm0 1h1zm1-4v-1 1zm1 46l2 3h1l1-1a5 5 0 003-1 8 8 0 002-4V44a5 5 0 00-1-3c0-3-2-4-6-4-1 0-3 2-3 4a11 11 0 010 7l1 2v5a2 2 0 01-1 2l1 2-1 9 1 3-1 4 1 4zm0-48h-1zm0 2l-1 1 1-1c-1 0-1 0 0 0zm0 51h-1a1 1 0 001 0zm1-49a1 1 0 00-1 0h1zm0-2zm0 0l1 1v-1zm2 2zm-1 51zm1-1zm1-52h-1 1zm1 0a1 1 0 001 0h-1zm0 52zm0-50zm0 52zm2-52zm0 48l-1 1h1v-1zm0-50zm0 2l1 1v-1zm1-2zm1 49h-1v1h1zm0 4h-1 1zm0-2zm1-1zm0-45zm0 3h1v-1zm2 5l-1-1 1 1zm0-8v-1 1zm0 5a1 1 0 010 1v-1zm0 11v-1zm0 7v-1 1zm0 3zm0-23zm0 6zm0 12zm1 7zm-1 7zm2-26h-1 1v0zm-1 1zm0 2h1-1zm0 5zm0 2v1h1l-1-1zm0 10zm1-14v0zM276 102a17 17 0 00-1 2 4 4 0 01-2 1c-1 2-3 3-5 3h-1-1a14 14 0 01-6 0 12 12 0 01-6-4l-3-3a113 113 0 01-5-17 10 10 0 01-1-3 26 26 0 01-1-3l-1-5a3 3 0 01-1-2 8 8 0 00-2-6l-2-1-2 2v3l-1 3 1 8v2 5c-1 2-2 4-6 2l-2-2V36v-3a5 5 0 011-3l3-1h7a13 13 0 019 3c2 1 4 2 5 5l1 5v3l-1 2v4l-2 7h-1l-2 4v1a41 41 0 003 10l2 7a106 106 0 005 17 14 14 0 002 3 8 8 0 005 1 1 1 0 011 0l3-1 1-1 2-2h1l4 2-1 3zm-45-17h-1zm0-51v-1 1zm0 2s1 0 0 0l1 1v-1zm1 2h-1zm-1 7v1h1l-1-1zm2 22v-1a9 9 0 00-2-2 2 2 0 001 2h-1l2 1zm-2 7v-1 1h0zm3-36l-2 2s0 1 0 0l2-2zm-2 11v1-1zm0 5c1 0 0 0 0 0v1a1 1 0 001-1zm0 15h1zm0 3zm0 6zm0 2v-1a8 8 0 001 1zm1-36h-1 1zm0 7h-1zm-1 7h1zm2 2h-1l-1-1 1 1a1 1 0 00-1 0h1v1a1 1 0 011-1v1zm-1 20h-1zm1 1h-1 1zm0-21a1 1 0 000-1l1 1zm2-28a1 1 0 00-1-1v1zm7 23c2-1 3-2 3-4v-5-5c-1-4-5-5-8-3h-1c-1 1-2 2-1 3v12c0 2 1 2 2 3l5-1zm-6 4v1zm1-27a1 1 0 001 1zm3 31a2 2 0 00-1-1l1 1zm0-30a1 1 0 000 1v-1zm1 0c-1 0-1 0 0 0zm1 29h-1 1zm0 1h-1 1zm1-4v1h-1 2l-1-1zm0 4h-1zm1 6h-1v1zm1-1a1 1 0 00-1-1v1zm0-32zm0 22v1c0 1 0 0 0 0v-1zm1 16c-1 0-1 0 0 0h1l-1-1h-1v-1 2h1zm0 4v-1 1c-1 0 0 0 0 0zm0-42l1-1h-1zm1 1v-1a1 1 0 000 1zm0 39zm1 1l-1 1 1-1zm1 8l-1-1 1 1zm0-43h1v-1l-1 1zm0 4c0 1 0 1 0 0zm0 36v-1zm0 7a7 7 0 010-1v1zm1-3l-1 1a2 2 0 001-1zm0 4v-1zm2 3v-1h-1l-1-1 1 1a1 1 0 00-1 0h1v1a1 1 0 010-1 1 1 0 001 1zm-1-5h-1 1-1 1zm0 3l1 1-1-1zm2 4l-1-1 1 1zm1 2l-1-1v1h1c1 0 0 0 0 0zm2 3a1 1 0 010 1h1v-1zm1 3l-1 1h1zm1 1v0zm8 1a1 1 0 01-1 0l1 1zm3-2v-1 1h-1 1zm2-3h0zm2 2a1 1 0 01-1 1z"/><path d="M262 71v-9-6-23c-1-2 0-2 1-3a2 2 0 012-1 1 1 0 012 0 2 2 0 011 1 3 3 0 012 3v5c0 2 0 3-2 4h1a5 5 0 011 3l-1 4v1a5 5 0 011 3v5a7 7 0 01-1 3 18 18 0 001 6 10 10 0 01-1 4 8 8 0 001 3v5 8l-2 3h-5l-1-2V71zm2-33v1h1l-1-1zm1 6a1 1 0 00-1 0h1zm2 26l-1-1-2-1c2 1 2 1 0 2 1 1 1 0 2-1 0 1 0 2 1 1zm-2-32zm1 4h-1zm-1 0zm0 5zm0 2zm1 14v1h-1l1-1zm-1 3v1a1 1 0 011 0l-1-1 1-1h-1l1-1-1 1zm0 6v-1zm1 12v-1a1 1 0 01-1 1h1zm0 3zm0-51zm0 3c0 1 0 0 0 0zm0 6v1-2zm0 5v1a1 1 0 011 0l-1-1zm0 3zm0 9v-1-1 2zm0 15h1zm0 4a1 1 0 000 1v-1zm0-48v1h1l-1-1zm0 3zm0 6c1 0 0 0 0 0zm1 6l-1-1a1 1 0 001 1zm0 30zm0-5zm1-28zm-1 37zm0 2c1 0 0 0 0 0z"/><path d="M305 33l-2 6v5a9 9 0 00-1 4l-1 4-1 9v1l-2 10-1 8-1 3a7 7 0 00-1 4 5 5 0 01-1 3c-2 1-6 0-7-2v-5l-1-1v-2a8 8 0 01-1-4v-5l-1-4a7 7 0 01-1-4 20 20 0 00-1-7h-1v-7a2 2 0 00-1-2v-1-3a16 16 0 01-2-6v-5a69 69 0 00-3-10l-2-4a8 8 0 00-5-2l-4 1v1l-3 2h-1l-3-3v-3l2-1a4 4 0 012-2l6-2a6 6 0 011 0 15 15 0 016 1 11 11 0 016 5l2 3a75 75 0 013 13l2 7a44 44 0 000 9l2 13v2l1 5v1a3 3 0 011 2l1-2a33 33 0 011-8l1-7a30 30 0 011-8 39 39 0 001-8l1-5a3 3 0 013-3h3c2 1 2 2 2 4zm-44-19h-1a1 1 0 011 0zm0 3v0zm4-3h-1v1-1zm3-1c0-2 0-2-1-1 0 1 0 1 0 0a1 1 0 011 1zm7 0v0zm1 2v-1 1zm0 3zm3 4l-1-1v1h1zm0 2l1 1-1-1zm0 3l1 1-1-1zm2 0v0-1a1 1 0 01-1 1 1 1 0 00-1-1l1 1zm0 2zm1 3a3 3 0 00-1 0h1zm-1 1zm1 0h-1zm1 6v-1 1zm0 1v3-3zm0 8zm2 9h-1zm0-10v-1 1zm0 9h1zm2 1h-2a2 2 0 011 1l1-1zm0 4l-1 1v1a1 1 0 001-1zm2 8h-1v1a1 1 0 001-1zm1 2h-1a1 1 0 001 1zm1 7c-1 0 0 0 0 0zm0-1l1-1h-1zm1 4v1h-1zm2-3h-2zm-1 5h-1zm2-17h-1v1l1-1zm2-7h-1a1 1 0 00-1 1h1a1 1 0 001-1zm0 5h-1a1 1 0 001 0zm1-22l-1 2a1 1 0 011 0v-2zm0 13l-1-1v1zm0-9zm1 0zm1-6l-1-1 1 1zm0-7c-1 0-1 0 0 0zm1 2h-1zm0 3h-1v1h1zm1-5h-1zM372 103l-2 1a4 4 0 01-2 2l-5 3a13 13 0 00-2 0 16 16 0 01-6 0 11 11 0 01-5-4c-2-1-4-1-5-3l-3-2a2 2 0 01-2-2 7 7 0 01-3-2c-6-7-15-6-20-6-3 0-4-1-4-4V76 65l1-4a12 12 0 01-1-6v-3-18l1-3a3 3 0 012-2h16c3 0 4 1 4 3 0 3-1 4-3 4a14 14 0 01-7 0 3 3 0 00-3 2c-2 0-2 1-2 3v10a4 4 0 004 4 7 7 0 004-1l4 2v1c1 1 2 3 0 4 0 2-1 2-2 2h-6l-4 2a18 18 0 000 6v4a11 11 0 000 4c1 2 2 3 4 3 6 0 10 2 13 4a4 4 0 001 1 10 10 0 002 2h1a3 3 0 010 1l5 4 3 2 4 2a2 2 0 010 1h1l1 1 5 2 3-2h1c0-2 1-2 2-2a1 1 0 012-1l3 3a5 5 0 010 3zm-57-66h1v1-1zm2 32v-1h-2 1a2 2 0 011 1zm0-28h-1v2h1v-1a1 1 0 000-1zm-1 4zm0 15a1 1 0 000-1v1zm0 5v0zm0-32a1 1 0 001-1zm2 19h-1 2-1zm0 8h-1l1 1zm-1 12h1a1 1 0 00-1 0zm1 2h-1v1l1-1s1 0 0 0zm0 9h-1v1h1zm0-48l1 1v-1zm0 16l1 1v-1l-1-1zm1-19v-1 1zm0 50v1zm2 4l-1-1 1 1zm0-27zm1-26v0zm0 26v-1zm1 26v-1h-1l1 1zm0-54v1h1l-1-1zm0 26v1-1zm2 30v-1 1h-2l2 1zm0-53h1zm1-3h1a1 1 0 00-1 0zm2 0h1-1zm2 55zm0 1v1a1 1 0 000-1zm0-55h1zm2 55h0zm1 1v-1h-1l1 1zm4 1v-1h-1v1zm1 3a1 1 0 00-1-1zm4 2a1 1 0 00-1 0h-1v1a3 3 0 011-1v1h1zm2 2h-1 1zm1 2h-1a1 1 0 001 0zm1-1v-1h-1v-1 1a1 1 0 001 1zm1 2v1zm2-1zm7 6v-1zm7 2h-1l-1-1 1 1zm2-3v1h-1 1zm2-3l1 1-1-1zm2 3a1 1 0 01-1 0z"/></g></g></svg>